<?xml version="1.0" encoding="UTF-8"?>
<svg id="Layer_1" data-name="Layer 1" xmlns="http://www.w3.org/2000/svg" viewBox="0 0 720.5 291">
  <defs>
    <style>
      .cls-1 {
        fill: #fff;
      }
    </style>
  </defs>
  <path class="cls-1" d="M367.969,0l-1.022,6.227v176.046c.333,2.094-.064,5.705,2.75,5.75,10.434-.818,22.295,1.008,32.549.006,1.01-.099,1.888.018,2.473-1.027l.227-75.273c.363-.973.351-5.74,1.271-5.719,5.232,5.762,10.404,11.606,15.506,17.483,3.229,3.72,6.132,7.935,9.485,11.514,1.047,1.118,3.046,3.542,4.506,3.545l1.792-.764,25.187-29.807,2.764-1.98.873,80.882c.327.703.593.975,1.381,1.118,3.283.598,9.789-.051,13.52-.022,2.207.017,4.255.011,6.459,0,3.963-.02,11.041.658,14.519.021.56-.102.935-.254,1.25-.75V2.25c0-.242-.629-.905-.51-1.413-.857-1.377-3.583,1.965-4.246,2.656-21.094,21.997-39.384,49.034-60.483,71.012-.809.842-1.701,2.143-2.979,2.022L368.469,0h253.979c-72.476,3.499-118.179,77.779-82.579,142.836,45.604,83.337,174.748,55.408,180.57-41.336v189.5H0v-105c.845,1.329.481,1.802,2.22,2.03,7.307.958,18.709-.105,26.548-.051,2.63.018,7.014,1.664,8.592-1.866,1.253-2.802.146-4.374.116-6.843-.131-10.537-.629-22.659-.003-33.043.085-1.406.301-2.761.627-4.119.786-1.098,14.939-1.359,17.583-1.671,51.835-6.106,77.662-66.903,46.514-108.895C77.436-1.84,40.729,4.186,3.752,4.002c-2.049.217-2.932.532-3.752,2.498V0h367.969ZM266.475,187.997c.735-.661-3.846-6.405-4.511-7.234-11.765-14.652-25.776-28.261-37.74-42.757-1.711-2.073-4.542-4.355-2.262-6.779,2.268-2.411,8.195-5.456,11.281-8.214,45.725-40.854,17.329-115.711-43.989-119.034-12.741-.691-32.51-1.048-45.036.002-1.599.134-3.442.27-4.011,1.989l-.243,178.804.761,2.739,36.141-.131c.563-.777.565-1.697.639-2.61.914-11.236-.853-23.743-.041-35.042.082-1.138.387-5.531,1.763-5.227,5.291,5.54,10.436,11.258,15.513,16.991,6.133,6.926,12.139,14.929,18.485,21.514,3.261,3.384,5.354,5.472,10.511,5.534,1.429.017,2.653-.557,3.974-.561,12.921-.039,25.85.074,38.765.018ZM325.369,187.39l.628-4.118-.143-175.903c-.326-1.82-1.248-3.043-3.16-3.34-9.587,1.029-22.687-1.534-31.849.089-1.441.255-2.967.923-2.892,2.608-.363,56.509.554,113.041.047,169.547-.027,3.011-1.787,9.44,1.518,11.434,2.699,1.629,4.661.313,7.186.271,8.424-.139,17.788.653,26.04.042.908-.067,1.844-.104,2.624-.631ZM466.961,273c-2.379.398-4.06,2.707-6.391,3.858-8.582,4.237-27.179,4.756-36.099,1.386-14.023-5.298-15.125-23.243-1.497-29.486,8.715-3.992,28.25-3.303,36.979.501,2.43,1.059,4.041,2.209,5.766,4.239l1.243-.748v-10.5c-4.735-4.091-12.592-5.634-18.755-6.244-15.344-1.518-39.049.667-43.88,18.604-5.494,20.397,7.429,34.298,27.396,35.882,11.066.878,25.976.336,35.239-6.242v-11.25ZM303.974,273.5l-40.015-35.731c-3.138-1.603-6.711-1.481-10.001-.54l-.48,51.021c.47,2.579,8.375,2.371,10,.5v-35.75l40.757,35.989c2.61,1.379,9.912,2.396,10.264-1.713l-.04-48.511c-.489-3.127-10.485-2.546-10.485-.014v34.75ZM330.538,237.561c-.478,1.549.277,2.436,1.019,3.604,6.87,10.821,17.834,21.115,25.035,31.963,1.428,3.56-1.149,14.531,1.68,16.32,1.603,1.014,8.003,1.039,8.949-.947l.522-14.978,26.713-34.784c-.051-2.464-9.043-2.365-10.741-1.238l-21.495,25.991-20.962-26.027c-1.057-.774-9.93-1.132-10.72.097Z"/>
  <path d="M626.947,0l11.178,1.071c39.687,5.4,72.024,35.722,80.082,74.912l2.233,16.017c-.138,3.145.189,6.361,0,9.5-5.822,96.743-134.966,124.673-180.57,41.336C504.268,77.779,549.972,3.499,622.448,0h4.5ZM620.845,38.647c-39.606,2.247-65.943,43.448-50.126,80.337,23.166,54.029,103.854,43.476,111.162-15.296,4.51-36.272-24.721-67.101-61.036-65.041Z"/>
  <path d="M368.469,0l66.77,76.527c1.278.122,2.17-1.179,2.979-2.022,21.099-21.978,39.389-49.015,60.483-71.012.663-.691,3.389-4.033,4.246-2.656-.118.508.51,1.171.51,1.413v185c-.315.496-.69.647-1.25.75-3.478.637-10.556-.041-14.519-.021-2.204.011-4.251.017-6.459,0-3.731-.029-10.237.62-13.52.022-.788-.144-1.054-.416-1.381-1.118l-.873-80.882-2.764,1.98-25.187,29.807-1.792.764c-1.46-.003-3.459-2.427-4.506-3.545-3.353-3.579-6.256-7.795-9.485-11.514-5.101-5.877-10.274-11.721-15.506-17.483-.92-.021-.908,4.746-1.271,5.719l-.227,75.273c-.585,1.044-1.464.928-2.473,1.027-10.253,1.001-22.115-.824-32.549-.006-2.814-.045-2.417-3.655-2.75-5.75V6.227s1.023-6.227,1.023-6.227h.5Z"/>
  <path d="M0,6.5c.82-1.966,1.703-2.281,3.752-2.498,36.977.184,73.684-5.842,98.446,27.541,31.148,41.992,5.321,102.79-46.514,108.895-2.644.311-16.798.573-17.583,1.671-.326,1.358-.542,2.712-.627,4.119-.626,10.384-.128,22.506.003,33.043.031,2.469,1.138,4.041-.116,6.843-1.579,3.529-5.963,1.884-8.592,1.866-7.839-.054-19.241,1.009-26.548.051-1.74-.228-1.375-.701-2.22-2.03V6.5ZM40.866,41.619c-2.021.362-3.265,1.496-3.38,3.62.896,16.502-1.153,34.172-.01,50.532.587,8.394,2.737,8.245,10.79,7.75,38.399-2.361,40.591-60.137-2.524-62.015-1.529-.067-3.39-.153-4.876.113Z"/>
  <path class="cls-1" d="M626.947,0h93.492v92l-2.233-16.017c-8.057-39.189-40.395-69.512-80.082-74.912l-11.178-1.071Z"/>
  <path d="M266.475,187.997c-12.915.056-25.844-.057-38.765-.018-1.321.004-2.545.578-3.974.561-5.157-.062-7.25-2.15-10.511-5.534-6.345-6.584-12.351-14.588-18.485-21.514-5.077-5.733-10.222-11.451-15.513-16.991-1.375-.304-1.681,4.09-1.763,5.227-.812,11.298.954,23.805.041,35.042-.074.913-.076,1.833-.639,2.61l-36.141.131-.761-2.739.243-178.804c.569-1.719,2.412-1.855,4.011-1.989,12.526-1.05,32.295-.692,45.036-.002,61.318,3.323,89.714,78.18,43.989,119.034-3.087,2.758-9.014,5.803-11.281,8.214-2.28,2.425.551,4.707,2.262,6.779,11.964,14.495,25.975,28.104,37.74,42.757.665.828,5.246,6.573,4.511,7.234ZM180.356,41.621c-1.883.344-2.803,1.115-2.879,3.12.93,16.808-1.208,34.872-.011,51.528.565,7.864,2.954,7.632,10.29,7.251,26.608-1.379,39.873-32.924,21.488-52.532-6.186-6.598-20.058-10.979-28.887-9.368Z"/>
  <path d="M325.369,187.39c-.78.527-1.716.564-2.624.631-8.252.611-17.616-.181-26.04-.042-2.525.042-4.488,1.358-7.186-.271-3.305-1.995-1.545-8.423-1.518-11.434.507-56.506-.41-113.038-.047-169.547-.075-1.685,1.451-2.353,2.892-2.608,9.161-1.623,22.262.94,31.849-.089,1.912.297,2.835,1.52,3.16,3.34l.143,175.903-.628,4.118Z"/>
  <path d="M303.974,273.5v-34.75c0-2.531,9.996-3.112,10.485.014l.04,48.511c-.352,4.109-7.655,3.092-10.264,1.713l-40.757-35.989v35.75c-1.625,1.871-9.53,2.08-10-.5l.48-51.021c3.29-.941,6.863-1.063,10.001.54l40.015,35.731Z"/>
  <path d="M466.961,273v11.25c-9.263,6.578-24.173,7.12-35.239,6.242-19.967-1.584-32.889-15.485-27.396-35.882,4.831-17.936,28.536-20.122,43.88-18.604,6.162.61,14.02,2.153,18.755,6.244v10.5l-1.243.748c-1.724-2.03-3.335-3.18-5.766-4.239-8.729-3.804-28.264-4.493-36.979-.501-13.628,6.242-12.525,24.188,1.497,29.486,8.92,3.37,27.517,2.851,36.099-1.386,2.331-1.151,4.012-3.46,6.391-3.858Z"/>
  <path d="M330.538,237.561c.789-1.229,9.663-.871,10.72-.097l20.962,26.027,21.495-25.991c1.698-1.127,10.689-1.225,10.741,1.238l-26.713,34.784-.522,14.978c-.946,1.986-7.346,1.961-8.949.947-2.829-1.789-.252-12.76-1.68-16.32-7.201-10.848-18.165-21.142-25.035-31.963-.741-1.168-1.497-2.056-1.019-3.604Z"/>
  <path class="cls-1" d="M620.845,38.647c36.315-2.06,65.546,28.769,61.036,65.041-7.307,58.772-87.996,69.325-111.162,15.296-15.817-36.889,10.52-78.089,50.126-80.337Z"/>
  <path class="cls-1" d="M40.866,41.619c1.487-.266,3.347-.18,4.876-.113,43.115,1.878,40.923,59.654,2.524,62.015-8.053.495-10.204.644-10.79-7.75-1.143-16.36.906-34.03.01-50.532.115-2.124,1.359-3.258,3.38-3.62Z"/>
  <path class="cls-1" d="M180.356,41.621c8.829-1.611,22.701,2.77,28.887,9.368,18.384,19.608,5.119,51.153-21.488,52.532-7.336.38-9.725.612-10.29-7.251-1.196-16.656.941-34.72.011-51.528.076-2.006.996-2.777,2.879-3.12Z"/>
</svg>